<svg xmlns="http://www.w3.org/2000/svg" viewBox="0 0 960 600" role="img" aria-label="ÇĂÈ·ó¸±üÈ thumbnail">
  <defs>
    <linearGradient id="sky" x1="0" y1="0" x2="1" y2="1">
      <stop offset="0" stop-color="#221233"/>
      <stop offset="0.45" stop-color="#7a3040"/>
      <stop offset="1" stop-color="#f0a24b"/>
    </linearGradient>
    <linearGradient id="card" x1="0" y1="0" x2="0" y2="1">
      <stop offset="0" stop-color="#15203f"/>
      <stop offset="1" stop-color="#070b1e"/>
    </linearGradient>
  </defs>
  <rect width="960" height="600" fill="url(#sky)"/>
  <rect x="0" y="375" width="960" height="225" fill="#0d1024"/>
  <g opacity=".42">
    <rect x="52" y="260" width="70" height="140" fill="#17111f"/>
    <rect x="150" y="220" width="95" height="180" fill="#21162b"/>
    <rect x="285" y="285" width="78" height="115" fill="#17111f"/>
    <rect x="655" y="190" width="120" height="210" fill="#21162b"/>
    <rect x="815" y="245" width="80" height="155" fill="#17111f"/>
  </g>
  <g fill="#ffd36a" opacity=".8">
    <rect x="78" y="292" width="16" height="12"/>
    <rect x="180" y="250" width="18" height="14"/>
    <rect x="215" y="312" width="18" height="14"/>
    <rect x="685" y="232" width="20" height="16"/>
    <rect x="730" y="288" width="20" height="16"/>
    <rect x="845" y="282" width="18" height="14"/>
  </g>
  <rect x="74" y="86" width="812" height="118" rx="20" fill="#1a0b16" opacity=".55"/>
  <text x="480" y="130" text-anchor="middle" font-family="'Yu Gothic', 'Meiryo', sans-serif" font-size="54" font-weight="900" fill="#fff0a8">ÇĂÈ·ó¸±üÈ</text>
  <text x="480" y="180" text-anchor="middle" font-family="'Yu Gothic', 'Meiryo', sans-serif" font-size="34" font-weight="800" fill="#f6b35a">~†’Œ̣[ˆ</text>
  <g transform="translate(158 250)">
    <rect x="0" y="0" width="644" height="250" rx="18" fill="url(#card)" stroke="#caa15a" stroke-width="8"/>
    <rect x="24" y="26" width="210" height="64" rx="8" fill="#101830" stroke="#2f8f8a" stroke-width="4"/>
    <text x="42" y="68" font-family="Consolas, monospace" font-size="30" font-weight="700" fill="#7dffb0">PRIMARY BOOK</text>
    <rect x="410" y="28" width="190" height="62" rx="8" fill="#101830" stroke="#facc15" stroke-width="4"/>
    <text x="440" y="68" font-family="'Yu Gothic', 'Meiryo', sans-serif" font-size="30" font-weight="800" fill="#f8f8f8">‹M 0</text>
    <rect x="56" y="126" width="220" height="78" rx="10" fill="#10162e" stroke="#4b5563" stroke-width="5"/>
    <text x="86" y="176" font-family="'Yu Gothic', 'Meiryo', sans-serif" font-size="32" font-weight="800" fill="#facc15">íüÉ·çü</text>
    <rect x="365" y="126" width="220" height="78" rx="10" fill="#10162e" stroke="#4b5563" stroke-width="5"/>
    <text x="412" y="176" font-family="'Yu Gothic', 'Meiryo', sans-serif" font-size="32" font-weight="800" fill="#facc15">Ç£üë</text>
  </g>
</svg>
